<svg xmlns="http://www.w3.org/2000/svg" data-name="Layer 1" viewBox="0 0 100 125" x="0px" y="0px"><title>icon03</title><path d="M23.34,55v0a1.59,1.59,0,0,0-1.75-1.31l-7.75,1a1.58,1.58,0,0,0-1.34,1.85q0.09,0.49.19,1a1.58,1.58,0,0,0,1.92,1.23l7.58-1.88A1.59,1.59,0,0,0,23.34,55Z"/><path d="M40.15,22.45a1.56,1.56,0,0,0,1.94.93l0.12,0a1.56,1.56,0,0,0,1-1.88l-2-7.57a1.58,1.58,0,0,0-2-1.11l-1,.3a1.58,1.58,0,0,0-1,2.06Z"/><path d="M28.65,30.44a1.56,1.56,0,0,0,2.15-.08l0.09-.09a1.56,1.56,0,0,0,0-2.15l-5.26-5.79a1.58,1.58,0,0,0-2.28,0L22.7,23a1.58,1.58,0,0,0,.08,2.28Z"/><path d="M14.57,41l7.6,1.85A1.57,1.57,0,0,0,24,41.77l0-.12a1.56,1.56,0,0,0-1-1.93L15.77,37a1.58,1.58,0,0,0-2,1q-0.15.48-.29,1A1.58,1.58,0,0,0,14.57,41Z"/><path d="M55.38,22.46h0a1.59,1.59,0,0,0,1.84-1.18L59,13.67a1.58,1.58,0,0,0-1.26-1.91l-1-.17A1.58,1.58,0,0,0,55,13L54,20.72A1.59,1.59,0,0,0,55.38,22.46Z"/><path d="M75.84,38.25a1.56,1.56,0,0,0,2,.81l7.28-2.86A1.58,1.58,0,0,0,86,34.07q-0.2-.46-0.42-0.91a1.58,1.58,0,0,0-2.17-.73L76.47,36.1a1.56,1.56,0,0,0-.69,2Z"/><path d="M67.48,27.77l0.1,0.08a1.56,1.56,0,0,0,2.14-.21l5.12-5.91a1.58,1.58,0,0,0-.23-2.27l-0.79-.61a1.58,1.58,0,0,0-2.26.36l-4.42,6.45A1.56,1.56,0,0,0,67.48,27.77Z"/><path d="M86,49.31l-7.82-.12a1.57,1.57,0,0,0-1.59,1.46v0.12a1.56,1.56,0,0,0,1.36,1.67l7.75,1A1.58,1.58,0,0,0,87.46,52q0-.5.07-1A1.58,1.58,0,0,0,86,49.31Z"/><path d="M67.24,73.87a1.56,1.56,0,0,0-2.11-.44L65,73.49a1.56,1.56,0,0,0-.56,2.08l3.71,6.88a1.58,1.58,0,0,0,2.2.6l0.85-.52a1.58,1.58,0,0,0,.47-2.24Z"/><path d="M54.16,78.84a1.59,1.59,0,0,0-1.7-1.37h0a1.59,1.59,0,0,0-1.51,1.58L51,86.87a1.58,1.58,0,0,0,1.67,1.55l1-.06A1.58,1.58,0,0,0,55.1,86.6Z"/><path d="M83.45,67l-6.92-3.64a1.56,1.56,0,0,0-2.07.59l-0.07.11a1.57,1.57,0,0,0,.46,2.1l6.47,4.38a1.58,1.58,0,0,0,2.23-.49l0.51-.85A1.58,1.58,0,0,0,83.45,67Z"/><path d="M28.83,67a1.56,1.56,0,0,0-2.13-.31l-6.39,4.51A1.58,1.58,0,0,0,20,73.44l0.62,0.78a1.58,1.58,0,0,0,2.28.19l5.84-5.2a1.56,1.56,0,0,0,.18-2.15Z"/><path d="M39.42,75.19l-0.11,0a1.56,1.56,0,0,0-2,.71l-3.57,7A1.58,1.58,0,0,0,34.47,85l0.91,0.41a1.58,1.58,0,0,0,2.11-.88l2.77-7.31A1.56,1.56,0,0,0,39.42,75.19Z"/><path d="M71.57,50A21.57,21.57,0,1,0,50,71.57,21.57,21.57,0,0,0,71.57,50ZM50,67.77A17.77,17.77,0,1,1,67.77,50,17.79,17.79,0,0,1,50,67.77Z"/><text x="0" y="115" fill="#000000" font-size="5px" font-weight="bold" font-family="'Helvetica Neue', Helvetica, Arial-Unicode, Arial, Sans-serif">Created by Mani Cheng</text><text x="0" y="120" fill="#000000" font-size="5px" font-weight="bold" font-family="'Helvetica Neue', Helvetica, Arial-Unicode, Arial, Sans-serif">from the Noun Project</text></svg>