<svg xmlns="http://www.w3.org/2000/svg" xmlns:xlink="http://www.w3.org/1999/xlink" version="1.1" x="0px" y="0px" viewBox="0 0 100 125" enable-background="new 0 0 100 100" xml:space="preserve"><path d="M77.551,73.324h-6.266V59.438c0-12.098-8.618-21.941-19.211-21.941c-2.627,0-5.132,0.607-7.414,1.702  c-0.01,0.004-0.02,0.004-0.028,0.009c-0.049,0.023-0.095,0.052-0.144,0.076c-0.312,0.154-0.618,0.317-0.921,0.489  c-0.17,0.096-0.338,0.195-0.505,0.296c-0.171,0.104-0.339,0.214-0.507,0.324c-0.378,0.246-0.747,0.505-1.106,0.778  c-0.049,0.037-0.098,0.072-0.146,0.11c-3.032,2.341-5.385,5.598-6.826,9.37c-0.056,0.146-0.111,0.292-0.164,0.438  c-0.085,0.236-0.168,0.472-0.246,0.711c-0.107,0.329-0.208,0.662-0.302,1c-0.053,0.189-0.101,0.381-0.148,0.573  c-0.078,0.31-0.151,0.622-0.218,0.938c-0.033,0.155-0.065,0.311-0.095,0.467c-0.085,0.447-0.161,0.896-0.222,1.352  c-0.008,0.06-0.013,0.119-0.021,0.18c-0.053,0.422-0.094,0.85-0.125,1.28c-0.009,0.127-0.019,0.254-0.025,0.381  c-0.028,0.485-0.048,0.974-0.048,1.468v13.887h-6.266c-0.414,0-0.75,0.336-0.75,0.75s0.336,0.75,0.75,0.75h50.953  c0.414,0,0.75-0.336,0.75-0.75S77.965,73.324,77.551,73.324z M69.785,73.324h-8.614V60.032c0-9.61-5.73-17.885-13.668-20.32  c1.461-0.452,2.988-0.715,4.571-0.715c9.766,0,17.711,9.17,17.711,20.441V73.324z M62.569,35.711h8.771  c0.414,0,0.75-0.336,0.75-0.75s-0.336-0.75-0.75-0.75h-8.771c-0.414,0-0.75,0.336-0.75,0.75S62.155,35.711,62.569,35.711z   M70.591,39.883c0,0.414,0.336,0.75,0.75,0.75h6.21c0.414,0,0.75-0.336,0.75-0.75s-0.336-0.75-0.75-0.75h-6.21  C70.927,39.133,70.591,39.469,70.591,39.883z M22.993,58.613h4.448c0.414,0,0.75-0.336,0.75-0.75s-0.336-0.75-0.75-0.75h-4.448  c-0.414,0-0.75,0.336-0.75,0.75S22.579,58.613,22.993,58.613z M73.55,61.051c0,0.414,0.336,0.75,0.75,0.75h4.448  c0.414,0,0.75-0.336,0.75-0.75s-0.336-0.75-0.75-0.75H74.3C73.886,60.301,73.55,60.637,73.55,61.051z M23.893,62.035h-4.886  c-0.414,0-0.75,0.336-0.75,0.75s0.336,0.75,0.75,0.75h4.886c0.414,0,0.75-0.336,0.75-0.75S24.307,62.035,23.893,62.035z   M27.08,63.535c0.414,0,0.75-0.336,0.75-0.75s-0.336-0.75-0.75-0.75h-1.167c-0.414,0-0.75,0.336-0.75,0.75s0.336,0.75,0.75,0.75  H27.08z M34.538,34.339h6.21c0.414,0,0.75-0.336,0.75-0.75s-0.336-0.75-0.75-0.75h-6.21c-0.414,0-0.75,0.336-0.75,0.75  S34.124,34.339,34.538,34.339z M30.705,34.339h1.406c0.414,0,0.75-0.336,0.75-0.75s-0.336-0.75-0.75-0.75h-1.406  c-0.414,0-0.75,0.336-0.75,0.75S30.291,34.339,30.705,34.339z M27.441,40.633h1.406c0.414,0,0.75-0.336,0.75-0.75  s-0.336-0.75-0.75-0.75h-1.406c-0.414,0-0.75,0.336-0.75,0.75S27.027,40.633,27.441,40.633z M47.018,26.676h1.406  c0.414,0,0.75-0.336,0.75-0.75s-0.336-0.75-0.75-0.75h-1.406c-0.414,0-0.75,0.336-0.75,0.75S46.604,26.676,47.018,26.676z   M29.514,69.42h-1.406c-0.414,0-0.75,0.336-0.75,0.75s0.336,0.75,0.75,0.75h1.406c0.414,0,0.75-0.336,0.75-0.75  S29.928,69.42,29.514,69.42z M79.451,63.426h-1.406c-0.414,0-0.75,0.336-0.75,0.75s0.336,0.75,0.75,0.75h1.406  c0.414,0,0.75-0.336,0.75-0.75S79.865,63.426,79.451,63.426z M68.881,39.133c-0.414,0-0.75,0.336-0.75,0.75s0.336,0.75,0.75,0.75  h0.402c0.414,0,0.75-0.336,0.75-0.75s-0.336-0.75-0.75-0.75H68.881z M80.993,60.301h-0.402c-0.414,0-0.75,0.336-0.75,0.75  s0.336,0.75,0.75,0.75h0.402c0.414,0,0.75-0.336,0.75-0.75S81.407,60.301,80.993,60.301z"/><text x="0" y="115" fill="#000000" font-size="5px" font-weight="bold" font-family="'Helvetica Neue', Helvetica, Arial-Unicode, Arial, Sans-serif">Created by Sergey Demushkin</text><text x="0" y="120" fill="#000000" font-size="5px" font-weight="bold" font-family="'Helvetica Neue', Helvetica, Arial-Unicode, Arial, Sans-serif">from the Noun Project</text></svg>